<?xml version="1.0" standalone="no"?><!DOCTYPE svg PUBLIC "-//W3C//DTD SVG 1.1//EN" "http://www.w3.org/Graphics/SVG/1.1/DTD/svg11.dtd"><svg t="1694075364400" class="icon" viewBox="0 0 1024 1024" version="1.1" xmlns="http://www.w3.org/2000/svg" p-id="5428" xmlns:xlink="http://www.w3.org/1999/xlink" width="48" height="48"><path d="M426.666667 981.333333a42.666667 42.666667 0 0 1-42.666667-42.666666v-298.666667H298.666667a42.666667 42.666667 0 0 1-42.666667-42.666667v-170.666666a42.666667 42.666667 0 0 1 42.666667-42.666667h85.333333V298.666667a256 256 0 0 1 256-256h128a42.666667 42.666667 0 0 1 42.666667 42.666666v170.666667a42.666667 42.666667 0 0 1-42.666667 42.666667h-128v85.418666l131.541333 0.042667 2.133334 0.256 4.266666 0.768 4.181334 1.28 2.176 0.810667 4.949333 2.432 3.242667 2.048 2.901333 2.218666 1.706667 1.536 4.778666 5.248 1.322667 1.834667 1.237333 1.92 2.090667 3.84 1.152 2.645333 1.536 4.608 0.512 2.133334 0.426667 2.389333 0.426666 4.224L810.666667 426.666667l-0.085334 2.901333-0.682666 5.290667-0.682667 2.858666-45.738667 170.666667a42.666667 42.666667 0 0 1-41.216 31.573333H554.666667v-85.333333h134.826666l22.869334-85.333333H640V469.333333h-85.333333V298.666667a85.333333 85.333333 0 0 1 85.333333-85.333334h85.333333V128h-85.333333a170.666667 170.666667 0 0 0-170.453333 162.133333L469.333333 298.666667v170.624L341.333333 469.333333v85.333334h128v341.333333h85.333334v-256h85.333333v298.666667a42.666667 42.666667 0 0 1-37.674667 42.368L597.333333 981.333333h-170.666666z" fill="#ffffff" p-id="5429"></path></svg>