<?xml version="1.0" standalone="no"?><!DOCTYPE svg PUBLIC "-//W3C//DTD SVG 1.1//EN" "http://www.w3.org/Graphics/SVG/1.1/DTD/svg11.dtd"><svg t="1694094544447" class="icon" viewBox="0 0 1024 1024" version="1.1" xmlns="http://www.w3.org/2000/svg" p-id="7298" xmlns:xlink="http://www.w3.org/1999/xlink" width="48" height="48"><path d="M779.648 418.432l-187.136 227.925333-27.904 118.272 111.658667-48.512 181.802666-237.952-78.421333-59.733333z m39.168-47.658667l76.714667 58.410667 30.848-40.362667a78.933333 78.933333 0 0 0-75.605334-56.96l-31.957333 38.912zM896 213.333333c-3.754667 17.322667-12.970667 26.026667-27.605333 26.026667s-23.722667-8.704-27.221334-26.026667v-18.218666a54.912 54.912 0 0 0-54.826666-54.954667H195.2a55.04 55.04 0 0 0-55.04 54.954667v633.984c0 14.677333 5.76 28.373333 16.128 38.741333s24.234667 16 38.912 16H786.346667a54.741333 54.741333 0 0 0 54.826666-54.741333V682.666667c3.157333-17.92 12.245333-26.88 27.221334-26.88 14.976 0 24.192 8.96 27.605333 26.88v146.261333A109.738667 109.738667 0 0 1 786.261333 938.666667H195.072A109.738667 109.738667 0 0 1 85.333333 828.928V195.072A109.738667 109.738667 0 0 1 195.072 85.333333h591.189333A109.738667 109.738667 0 0 1 896 195.072V213.333333z m-369.408 623.274667a26.538667 26.538667 0 0 1-25.856-32.64l41.514667-175.786667a26.453333 26.453333 0 0 1 5.333333-10.794666l269.354667-327.978667c4.224-5.12 10.24-8.533333 16.896-9.429333a130.986667 130.986667 0 0 1 147.242666 111.786666 26.624 26.624 0 0 1-5.205333 19.754667l-261.632 342.314667a26.581333 26.581333 0 0 1-10.496 8.192l-166.570667 72.405333a26.496 26.496 0 0 1-10.581333 2.176z m-117.589333-236.032h-116.906667a26.538667 26.538667 0 1 1 0-53.077333h116.906667a26.538667 26.538667 0 1 1 0 53.077333z m177.621333-143.616H295.68c-16.682667 0-30.208-11.904-30.208-26.538667 0-14.677333 13.525333-26.538667 30.208-26.538666h290.901333c16.682667 0 30.208 11.861333 30.208 26.538666 0 14.634667-13.525333 26.538667-30.208 26.538667z m0-138.368H295.68c-16.682667 0-30.208-11.904-30.208-26.581333 0-14.634667 13.525333-26.538667 30.208-26.538667h290.901333c16.682667 0 30.208 11.904 30.208 26.538667 0 14.677333-13.525333 26.581333-30.208 26.581333z" fill="#ffffff" p-id="7299"></path></svg>