<?xml version="1.0" standalone="no"?><!DOCTYPE svg PUBLIC "-//W3C//DTD SVG 1.1//EN" "http://www.w3.org/Graphics/SVG/1.1/DTD/svg11.dtd"><svg t="1688751410509" class="icon" viewBox="0 0 1024 1024" version="1.1" xmlns="http://www.w3.org/2000/svg" p-id="1042" xmlns:xlink="http://www.w3.org/1999/xlink" width="48" height="48"><path d="M984 656a40 40 0 1 1 0 80h-122v26h34.456l0.456 0.008c3.232 0.08 32.464 1.184 62.08 17.152 41.92 22.608 65.008 63.72 65.008 115.76 0 69.712-55.744 126.608-124.984 128.56-2.016 0.312-4.072 0.52-6.176 0.52-44.448 0-86.936-24.144-110.88-63.016a40 40 0 0 1 68.104-41.968c8.752 14.2 24.712 23.952 40.328 24.888 1.632-0.2 3.28-0.336 4.96-0.336a48.704 48.704 0 0 0 48.648-48.648c0-28.576-12.16-39.032-21.312-44.408-12.032-7.072-25.312-8.336-27.68-8.512h-73.008a40 40 0 0 1-40-40V696a40 40 0 0 1 40-40zM51.232 288.52a40 40 0 1 1 71.952 34.96C94.528 382.456 80 445.888 80 512c0 238.208 193.792 432 432 432 48.656 0 98.064-8.224 142.88-23.792a40 40 0 0 1 26.24 75.584C627.968 1014.24 569.488 1024 512 1024c-136.76 0-265.336-53.256-362.04-149.96C53.256 777.336 0 648.76 0 512c0-78.32 17.232-153.52 51.232-223.48z m94.48-142.8a40 40 0 0 1 50.976-4.664c8.56 5.896 21.944 15.12 38.704 26.704l7.392 5.12a26551.624 26551.624 0 0 1 132.992 92.56l10.616 7.44 5.312 3.736 10.624 7.472c90.264 63.512 178.104 126.64 194.52 143.056 46.792 46.792 46.792 122.92 0 169.712A119.632 119.632 0 0 1 512 631.944a119.632 119.632 0 0 1-84.848-35.088C409.76 579.464 340 482 272.88 386.392l-7.44-10.616a26509.968 26509.968 0 0 1-92.576-132.992l-5.104-7.392a26187.48 26187.48 0 0 1-26.712-38.704 40 40 0 0 1 4.664-50.976zM512 0c136.76 0 265.336 53.256 362.04 149.96C970.744 246.664 1024 375.24 1024 512c0 9.368-0.264 18.864-0.776 28.208a40 40 0 0 1-79.88-4.416c0.432-7.888 0.656-15.888 0.656-23.792 0-224.728-172.464-409.92-392-430.16V200a40 40 0 1 1-80 0V40a40 40 0 0 1 40-40zM333.6 333.6c75.176 107.16 137.704 194.128 150.12 206.688a40.048 40.048 0 0 0 56.56 0 40.04 40.04 0 0 0 0.008-56.56c-12.56-12.424-99.528-74.952-206.696-150.136z" p-id="1043"></path></svg>