<?xml version="1.0" standalone="no"?><!DOCTYPE svg PUBLIC "-//W3C//DTD SVG 1.1//EN" "http://www.w3.org/Graphics/SVG/1.1/DTD/svg11.dtd"><svg t="1694095284246" class="icon" viewBox="0 0 1024 1024" version="1.1" xmlns="http://www.w3.org/2000/svg" p-id="9312" xmlns:xlink="http://www.w3.org/1999/xlink" width="48" height="48"><path d="M810.666667 85.333333a128 128 0 0 1 128 128v597.333334a128 128 0 0 1-128 128H213.333333a128 128 0 0 1-128-128V213.333333a128 128 0 0 1 128-128h597.333334z m64 330.666667h-725.333334V810.666667A64 64 0 0 0 213.333333 874.666667h597.333334a64 64 0 0 0 64-64V416zM810.666667 149.333333H213.333333a64 64 0 0 0-63.701333 57.856L149.333333 213.333333v138.666667h725.333334V213.333333a64 64 0 0 0-57.856-63.701333L810.666667 149.333333z" fill="#ffffff" p-id="9313"></path><path d="M256 298.666667a42.666667 42.666667 0 1 1 0-85.333334 42.666667 42.666667 0 0 1 0 85.333334zM384 298.666667a42.666667 42.666667 0 1 1 0-85.333334 42.666667 42.666667 0 0 1 0 85.333334zM512 298.666667a42.666667 42.666667 0 1 1 0-85.333334 42.666667 42.666667 0 0 1 0 85.333334z" fill="#ffffff" p-id="9314"></path><path d="M638.72 690.517333L689.237333 640l-50.517333-50.517333a32 32 0 1 1 45.226667-45.226667l73.173333 73.130667a32 32 0 0 1 0 45.226666l-73.173333 73.173334a32 32 0 1 1-45.226667-45.269334zM385.28 690.517333L334.762667 640l50.517333-50.517333a32 32 0 0 0-45.226667-45.226667L266.88 617.386667a32 32 0 0 0 0 45.226666l73.173333 73.173334a32 32 0 1 0 45.226667-45.269334zM517.802667 503.210667l-73.130667 256a32 32 0 1 0 61.525333 17.578666l73.130667-256a32 32 0 1 0-61.525333-17.578666z" fill="#ffffff" p-id="9315"></path></svg>